<?xml version="1.0" encoding="utf-8" standalone="no"?>
<!DOCTYPE svg PUBLIC "-//W3C//DTD SVG 1.1//EN"
  "http://www.w3.org/Graphics/SVG/1.1/DTD/svg11.dtd">
<svg xmlns:xlink="http://www.w3.org/1999/xlink" width="460.8pt" height="345.6pt" viewBox="0 0 460.8 345.6" xmlns="http://www.w3.org/2000/svg" version="1.1">
 <metadata>
  <rdf:RDF xmlns:dc="http://purl.org/dc/elements/1.1/" xmlns:cc="http://creativecommons.org/ns#" xmlns:rdf="http://www.w3.org/1999/02/22-rdf-syntax-ns#">
   <cc:Work>
    <dc:type rdf:resource="http://purl.org/dc/dcmitype/StillImage"/>
    <dc:date>2023-07-21T16:10:01.316814</dc:date>
    <dc:format>image/svg+xml</dc:format>
    <dc:creator>
     <cc:Agent>
      <dc:title>Matplotlib v3.7.2, https://matplotlib.org/</dc:title>
     </cc:Agent>
    </dc:creator>
   </cc:Work>
  </rdf:RDF>
 </metadata>
 <defs>
  <style type="text/css">*{stroke-linejoin: round; stroke-linecap: butt}</style>
 </defs>
 <g id="figure_1">
  <g id="patch_1">
   <path d="M 0 345.6 
L 460.8 345.6 
L 460.8 0 
L 0 0 
z
" style="fill: #ffffff"/>
  </g>
  <g id="axes_1">
   <g id="patch_2">
    <path d="M 57.6 307.584 
L 414.72 307.584 
L 414.72 41.472 
L 57.6 41.472 
z
" style="fill: #ffffff"/>
   </g>
   <g id="matplotlib.axis_1">
    <g id="xtick_1">
     <g id="line2d_1">
      <defs>
       <path id="mbc1012cf66" d="M 0 0 
L 0 3.5 
" style="stroke: #000000; stroke-width: 0.8"/>
      </defs>
      <g>
       <use xlink:href="#mbc1012cf66" x="73.832727" y="307.584" style="stroke: #000000; stroke-width: 0.8"/>
      </g>
     </g>
     <g id="text_1">
      <!-- 0 -->
      <g transform="translate(70.651477 322.182437) scale(0.1 -0.1)">
       <defs>
        <path id="DejaVuSans-30" d="M 2034 4250 
Q 1547 4250 1301 3770 
Q 1056 3291 1056 2328 
Q 1056 1369 1301 889 
Q 1547 409 2034 409 
Q 2525 409 2770 889 
Q 3016 1369 3016 2328 
Q 3016 3291 2770 3770 
Q 2525 4250 2034 4250 
z
M 2034 4750 
Q 2819 4750 3233 4129 
Q 3647 3509 3647 2328 
Q 3647 1150 3233 529 
Q 2819 -91 2034 -91 
Q 1250 -91 836 529 
Q 422 1150 422 2328 
Q 422 3509 836 4129 
Q 1250 4750 2034 4750 
z
" transform="scale(0.015625)"/>
       </defs>
       <use xlink:href="#DejaVuSans-30"/>
      </g>
     </g>
    </g>
    <g id="xtick_2">
     <g id="line2d_2">
      <g>
       <use xlink:href="#mbc1012cf66" x="138.763636" y="307.584" style="stroke: #000000; stroke-width: 0.8"/>
      </g>
     </g>
     <g id="text_2">
      <!-- 2 -->
      <g transform="translate(135.582386 322.182437) scale(0.1 -0.1)">
       <defs>
        <path id="DejaVuSans-32" d="M 1228 531 
L 3431 531 
L 3431 0 
L 469 0 
L 469 531 
Q 828 903 1448 1529 
Q 2069 2156 2228 2338 
Q 2531 2678 2651 2914 
Q 2772 3150 2772 3378 
Q 2772 3750 2511 3984 
Q 2250 4219 1831 4219 
Q 1534 4219 1204 4116 
Q 875 4013 500 3803 
L 500 4441 
Q 881 4594 1212 4672 
Q 1544 4750 1819 4750 
Q 2544 4750 2975 4387 
Q 3406 4025 3406 3419 
Q 3406 3131 3298 2873 
Q 3191 2616 2906 2266 
Q 2828 2175 2409 1742 
Q 1991 1309 1228 531 
z
" transform="scale(0.015625)"/>
       </defs>
       <use xlink:href="#DejaVuSans-32"/>
      </g>
     </g>
    </g>
    <g id="xtick_3">
     <g id="line2d_3">
      <g>
       <use xlink:href="#mbc1012cf66" x="203.694545" y="307.584" style="stroke: #000000; stroke-width: 0.8"/>
      </g>
     </g>
     <g id="text_3">
      <!-- 4 -->
      <g transform="translate(200.513295 322.182437) scale(0.1 -0.1)">
       <defs>
        <path id="DejaVuSans-34" d="M 2419 4116 
L 825 1625 
L 2419 1625 
L 2419 4116 
z
M 2253 4666 
L 3047 4666 
L 3047 1625 
L 3713 1625 
L 3713 1100 
L 3047 1100 
L 3047 0 
L 2419 0 
L 2419 1100 
L 313 1100 
L 313 1709 
L 2253 4666 
z
" transform="scale(0.015625)"/>
       </defs>
       <use xlink:href="#DejaVuSans-34"/>
      </g>
     </g>
    </g>
    <g id="xtick_4">
     <g id="line2d_4">
      <g>
       <use xlink:href="#mbc1012cf66" x="268.625455" y="307.584" style="stroke: #000000; stroke-width: 0.8"/>
      </g>
     </g>
     <g id="text_4">
      <!-- 6 -->
      <g transform="translate(265.444205 322.182437) scale(0.1 -0.1)">
       <defs>
        <path id="DejaVuSans-36" d="M 2113 2584 
Q 1688 2584 1439 2293 
Q 1191 2003 1191 1497 
Q 1191 994 1439 701 
Q 1688 409 2113 409 
Q 2538 409 2786 701 
Q 3034 994 3034 1497 
Q 3034 2003 2786 2293 
Q 2538 2584 2113 2584 
z
M 3366 4563 
L 3366 3988 
Q 3128 4100 2886 4159 
Q 2644 4219 2406 4219 
Q 1781 4219 1451 3797 
Q 1122 3375 1075 2522 
Q 1259 2794 1537 2939 
Q 1816 3084 2150 3084 
Q 2853 3084 3261 2657 
Q 3669 2231 3669 1497 
Q 3669 778 3244 343 
Q 2819 -91 2113 -91 
Q 1303 -91 875 529 
Q 447 1150 447 2328 
Q 447 3434 972 4092 
Q 1497 4750 2381 4750 
Q 2619 4750 2861 4703 
Q 3103 4656 3366 4563 
z
" transform="scale(0.015625)"/>
       </defs>
       <use xlink:href="#DejaVuSans-36"/>
      </g>
     </g>
    </g>
    <g id="xtick_5">
     <g id="line2d_5">
      <g>
       <use xlink:href="#mbc1012cf66" x="333.556364" y="307.584" style="stroke: #000000; stroke-width: 0.8"/>
      </g>
     </g>
     <g id="text_5">
      <!-- 8 -->
      <g transform="translate(330.375114 322.182437) scale(0.1 -0.1)">
       <defs>
        <path id="DejaVuSans-38" d="M 2034 2216 
Q 1584 2216 1326 1975 
Q 1069 1734 1069 1313 
Q 1069 891 1326 650 
Q 1584 409 2034 409 
Q 2484 409 2743 651 
Q 3003 894 3003 1313 
Q 3003 1734 2745 1975 
Q 2488 2216 2034 2216 
z
M 1403 2484 
Q 997 2584 770 2862 
Q 544 3141 544 3541 
Q 544 4100 942 4425 
Q 1341 4750 2034 4750 
Q 2731 4750 3128 4425 
Q 3525 4100 3525 3541 
Q 3525 3141 3298 2862 
Q 3072 2584 2669 2484 
Q 3125 2378 3379 2068 
Q 3634 1759 3634 1313 
Q 3634 634 3220 271 
Q 2806 -91 2034 -91 
Q 1263 -91 848 271 
Q 434 634 434 1313 
Q 434 1759 690 2068 
Q 947 2378 1403 2484 
z
M 1172 3481 
Q 1172 3119 1398 2916 
Q 1625 2713 2034 2713 
Q 2441 2713 2670 2916 
Q 2900 3119 2900 3481 
Q 2900 3844 2670 4047 
Q 2441 4250 2034 4250 
Q 1625 4250 1398 4047 
Q 1172 3844 1172 3481 
z
" transform="scale(0.015625)"/>
       </defs>
       <use xlink:href="#DejaVuSans-38"/>
      </g>
     </g>
    </g>
    <g id="xtick_6">
     <g id="line2d_6">
      <g>
       <use xlink:href="#mbc1012cf66" x="398.487273" y="307.584" style="stroke: #000000; stroke-width: 0.8"/>
      </g>
     </g>
     <g id="text_6">
      <!-- 10 -->
      <g transform="translate(392.124773 322.182437) scale(0.1 -0.1)">
       <defs>
        <path id="DejaVuSans-31" d="M 794 531 
L 1825 531 
L 1825 4091 
L 703 3866 
L 703 4441 
L 1819 4666 
L 2450 4666 
L 2450 531 
L 3481 531 
L 3481 0 
L 794 0 
L 794 531 
z
" transform="scale(0.015625)"/>
       </defs>
       <use xlink:href="#DejaVuSans-31"/>
       <use xlink:href="#DejaVuSans-30" x="63.623047"/>
      </g>
     </g>
    </g>
    <g id="text_7">
     <!-- Mn [%] -->
     <g transform="translate(218.435781 335.860562) scale(0.1 -0.1)">
      <defs>
       <path id="DejaVuSans-4d" d="M 628 4666 
L 1569 4666 
L 2759 1491 
L 3956 4666 
L 4897 4666 
L 4897 0 
L 4281 0 
L 4281 4097 
L 3078 897 
L 2444 897 
L 1241 4097 
L 1241 0 
L 628 0 
L 628 4666 
z
" transform="scale(0.015625)"/>
       <path id="DejaVuSans-6e" d="M 3513 2113 
L 3513 0 
L 2938 0 
L 2938 2094 
Q 2938 2591 2744 2837 
Q 2550 3084 2163 3084 
Q 1697 3084 1428 2787 
Q 1159 2491 1159 1978 
L 1159 0 
L 581 0 
L 581 3500 
L 1159 3500 
L 1159 2956 
Q 1366 3272 1645 3428 
Q 1925 3584 2291 3584 
Q 2894 3584 3203 3211 
Q 3513 2838 3513 2113 
z
" transform="scale(0.015625)"/>
       <path id="DejaVuSans-20" transform="scale(0.015625)"/>
       <path id="DejaVuSans-5b" d="M 550 4863 
L 1875 4863 
L 1875 4416 
L 1125 4416 
L 1125 -397 
L 1875 -397 
L 1875 -844 
L 550 -844 
L 550 4863 
z
" transform="scale(0.015625)"/>
       <path id="DejaVuSans-25" d="M 4653 2053 
Q 4381 2053 4226 1822 
Q 4072 1591 4072 1178 
Q 4072 772 4226 539 
Q 4381 306 4653 306 
Q 4919 306 5073 539 
Q 5228 772 5228 1178 
Q 5228 1588 5073 1820 
Q 4919 2053 4653 2053 
z
M 4653 2450 
Q 5147 2450 5437 2106 
Q 5728 1763 5728 1178 
Q 5728 594 5436 251 
Q 5144 -91 4653 -91 
Q 4153 -91 3862 251 
Q 3572 594 3572 1178 
Q 3572 1766 3864 2108 
Q 4156 2450 4653 2450 
z
M 1428 4353 
Q 1159 4353 1004 4120 
Q 850 3888 850 3481 
Q 850 3069 1003 2837 
Q 1156 2606 1428 2606 
Q 1700 2606 1854 2837 
Q 2009 3069 2009 3481 
Q 2009 3884 1853 4118 
Q 1697 4353 1428 4353 
z
M 4250 4750 
L 4750 4750 
L 1831 -91 
L 1331 -91 
L 4250 4750 
z
M 1428 4750 
Q 1922 4750 2215 4408 
Q 2509 4066 2509 3481 
Q 2509 2891 2217 2550 
Q 1925 2209 1428 2209 
Q 931 2209 642 2551 
Q 353 2894 353 3481 
Q 353 4063 643 4406 
Q 934 4750 1428 4750 
z
" transform="scale(0.015625)"/>
       <path id="DejaVuSans-5d" d="M 1947 4863 
L 1947 -844 
L 622 -844 
L 622 -397 
L 1369 -397 
L 1369 4416 
L 622 4416 
L 622 4863 
L 1947 4863 
z
" transform="scale(0.015625)"/>
      </defs>
      <use xlink:href="#DejaVuSans-4d"/>
      <use xlink:href="#DejaVuSans-6e" x="86.279297"/>
      <use xlink:href="#DejaVuSans-20" x="149.658203"/>
      <use xlink:href="#DejaVuSans-5b" x="181.445312"/>
      <use xlink:href="#DejaVuSans-25" x="220.458984"/>
      <use xlink:href="#DejaVuSans-5d" x="315.478516"/>
     </g>
    </g>
   </g>
   <g id="matplotlib.axis_2">
    <g id="ytick_1">
     <g id="line2d_7">
      <defs>
       <path id="m0bfd12d8de" d="M 0 0 
L -3.5 0 
" style="stroke: #000000; stroke-width: 0.8"/>
      </defs>
      <g>
       <use xlink:href="#m0bfd12d8de" x="57.6" y="296.169465" style="stroke: #000000; stroke-width: 0.8"/>
      </g>
     </g>
     <g id="text_8">
      <!-- 0 -->
      <g transform="translate(44.2375 299.968684) scale(0.1 -0.1)">
       <use xlink:href="#DejaVuSans-30"/>
      </g>
     </g>
    </g>
    <g id="ytick_2">
     <g id="line2d_8">
      <g>
       <use xlink:href="#m0bfd12d8de" x="57.6" y="262.096225" style="stroke: #000000; stroke-width: 0.8"/>
      </g>
     </g>
     <g id="text_9">
      <!-- 50 -->
      <g transform="translate(37.875 265.895444) scale(0.1 -0.1)">
       <defs>
        <path id="DejaVuSans-35" d="M 691 4666 
L 3169 4666 
L 3169 4134 
L 1269 4134 
L 1269 2991 
Q 1406 3038 1543 3061 
Q 1681 3084 1819 3084 
Q 2600 3084 3056 2656 
Q 3513 2228 3513 1497 
Q 3513 744 3044 326 
Q 2575 -91 1722 -91 
Q 1428 -91 1123 -41 
Q 819 9 494 109 
L 494 744 
Q 775 591 1075 516 
Q 1375 441 1709 441 
Q 2250 441 2565 725 
Q 2881 1009 2881 1497 
Q 2881 1984 2565 2268 
Q 2250 2553 1709 2553 
Q 1456 2553 1204 2497 
Q 953 2441 691 2322 
L 691 4666 
z
" transform="scale(0.015625)"/>
       </defs>
       <use xlink:href="#DejaVuSans-35"/>
       <use xlink:href="#DejaVuSans-30" x="63.623047"/>
      </g>
     </g>
    </g>
    <g id="ytick_3">
     <g id="line2d_9">
      <g>
       <use xlink:href="#m0bfd12d8de" x="57.6" y="228.022986" style="stroke: #000000; stroke-width: 0.8"/>
      </g>
     </g>
     <g id="text_10">
      <!-- 100 -->
      <g transform="translate(31.5125 231.822205) scale(0.1 -0.1)">
       <use xlink:href="#DejaVuSans-31"/>
       <use xlink:href="#DejaVuSans-30" x="63.623047"/>
       <use xlink:href="#DejaVuSans-30" x="127.246094"/>
      </g>
     </g>
    </g>
    <g id="ytick_4">
     <g id="line2d_10">
      <g>
       <use xlink:href="#m0bfd12d8de" x="57.6" y="193.949746" style="stroke: #000000; stroke-width: 0.8"/>
      </g>
     </g>
     <g id="text_11">
      <!-- 150 -->
      <g transform="translate(31.5125 197.748965) scale(0.1 -0.1)">
       <use xlink:href="#DejaVuSans-31"/>
       <use xlink:href="#DejaVuSans-35" x="63.623047"/>
       <use xlink:href="#DejaVuSans-30" x="127.246094"/>
      </g>
     </g>
    </g>
    <g id="ytick_5">
     <g id="line2d_11">
      <g>
       <use xlink:href="#m0bfd12d8de" x="57.6" y="159.876507" style="stroke: #000000; stroke-width: 0.8"/>
      </g>
     </g>
     <g id="text_12">
      <!-- 200 -->
      <g transform="translate(31.5125 163.675726) scale(0.1 -0.1)">
       <use xlink:href="#DejaVuSans-32"/>
       <use xlink:href="#DejaVuSans-30" x="63.623047"/>
       <use xlink:href="#DejaVuSans-30" x="127.246094"/>
      </g>
     </g>
    </g>
    <g id="ytick_6">
     <g id="line2d_12">
      <g>
       <use xlink:href="#m0bfd12d8de" x="57.6" y="125.803268" style="stroke: #000000; stroke-width: 0.8"/>
      </g>
     </g>
     <g id="text_13">
      <!-- 250 -->
      <g transform="translate(31.5125 129.602486) scale(0.1 -0.1)">
       <use xlink:href="#DejaVuSans-32"/>
       <use xlink:href="#DejaVuSans-35" x="63.623047"/>
       <use xlink:href="#DejaVuSans-30" x="127.246094"/>
      </g>
     </g>
    </g>
    <g id="ytick_7">
     <g id="line2d_13">
      <g>
       <use xlink:href="#m0bfd12d8de" x="57.6" y="91.730028" style="stroke: #000000; stroke-width: 0.8"/>
      </g>
     </g>
     <g id="text_14">
      <!-- 300 -->
      <g transform="translate(31.5125 95.529247) scale(0.1 -0.1)">
       <defs>
        <path id="DejaVuSans-33" d="M 2597 2516 
Q 3050 2419 3304 2112 
Q 3559 1806 3559 1356 
Q 3559 666 3084 287 
Q 2609 -91 1734 -91 
Q 1441 -91 1130 -33 
Q 819 25 488 141 
L 488 750 
Q 750 597 1062 519 
Q 1375 441 1716 441 
Q 2309 441 2620 675 
Q 2931 909 2931 1356 
Q 2931 1769 2642 2001 
Q 2353 2234 1838 2234 
L 1294 2234 
L 1294 2753 
L 1863 2753 
Q 2328 2753 2575 2939 
Q 2822 3125 2822 3475 
Q 2822 3834 2567 4026 
Q 2313 4219 1838 4219 
Q 1578 4219 1281 4162 
Q 984 4106 628 3988 
L 628 4550 
Q 988 4650 1302 4700 
Q 1616 4750 1894 4750 
Q 2613 4750 3031 4423 
Q 3450 4097 3450 3541 
Q 3450 3153 3228 2886 
Q 3006 2619 2597 2516 
z
" transform="scale(0.015625)"/>
       </defs>
       <use xlink:href="#DejaVuSans-33"/>
       <use xlink:href="#DejaVuSans-30" x="63.623047"/>
       <use xlink:href="#DejaVuSans-30" x="127.246094"/>
      </g>
     </g>
    </g>
    <g id="ytick_8">
     <g id="line2d_14">
      <g>
       <use xlink:href="#m0bfd12d8de" x="57.6" y="57.656789" style="stroke: #000000; stroke-width: 0.8"/>
      </g>
     </g>
     <g id="text_15">
      <!-- 350 -->
      <g transform="translate(31.5125 61.456007) scale(0.1 -0.1)">
       <use xlink:href="#DejaVuSans-33"/>
       <use xlink:href="#DejaVuSans-35" x="63.623047"/>
       <use xlink:href="#DejaVuSans-30" x="127.246094"/>
      </g>
     </g>
    </g>
    <g id="text_16">
     <!-- Ms [K] -->
     <g transform="translate(25.432812 190.216281) rotate(-90) scale(0.1 -0.1)">
      <defs>
       <path id="DejaVuSans-73" d="M 2834 3397 
L 2834 2853 
Q 2591 2978 2328 3040 
Q 2066 3103 1784 3103 
Q 1356 3103 1142 2972 
Q 928 2841 928 2578 
Q 928 2378 1081 2264 
Q 1234 2150 1697 2047 
L 1894 2003 
Q 2506 1872 2764 1633 
Q 3022 1394 3022 966 
Q 3022 478 2636 193 
Q 2250 -91 1575 -91 
Q 1294 -91 989 -36 
Q 684 19 347 128 
L 347 722 
Q 666 556 975 473 
Q 1284 391 1588 391 
Q 1994 391 2212 530 
Q 2431 669 2431 922 
Q 2431 1156 2273 1281 
Q 2116 1406 1581 1522 
L 1381 1569 
Q 847 1681 609 1914 
Q 372 2147 372 2553 
Q 372 3047 722 3315 
Q 1072 3584 1716 3584 
Q 2034 3584 2315 3537 
Q 2597 3491 2834 3397 
z
" transform="scale(0.015625)"/>
       <path id="DejaVuSans-4b" d="M 628 4666 
L 1259 4666 
L 1259 2694 
L 3353 4666 
L 4166 4666 
L 1850 2491 
L 4331 0 
L 3500 0 
L 1259 2247 
L 1259 0 
L 628 0 
L 628 4666 
z
" transform="scale(0.015625)"/>
      </defs>
      <use xlink:href="#DejaVuSans-4d"/>
      <use xlink:href="#DejaVuSans-73" x="86.279297"/>
      <use xlink:href="#DejaVuSans-20" x="138.378906"/>
      <use xlink:href="#DejaVuSans-5b" x="170.166016"/>
      <use xlink:href="#DejaVuSans-4b" x="209.179688"/>
      <use xlink:href="#DejaVuSans-5d" x="274.755859"/>
     </g>
    </g>
   </g>
   <g id="line2d_15">
    <path d="M 73.832727 53.568 
L 74.468059 53.568 
L 75.738723 54.93093 
L 76.374054 54.93093 
L 77.644718 56.293859 
L 78.28005 56.293859 
L 79.550713 57.656789 
L 80.186045 57.656789 
L 82.092041 59.701183 
L 82.727372 59.701183 
L 83.998036 61.064113 
L 84.633368 61.064113 
L 85.904031 62.427042 
L 86.539363 62.427042 
L 88.445358 64.471437 
L 89.08069 64.471437 
L 90.351354 65.834366 
L 90.986686 65.834366 
L 92.257349 67.197296 
L 92.892681 67.197296 
L 94.163345 68.560225 
L 94.798676 68.560225 
L 96.704672 70.60462 
L 97.340004 70.60462 
L 98.610667 71.967549 
L 99.245999 71.967549 
L 100.516663 73.330479 
L 101.151994 73.330479 
L 102.422658 74.693408 
L 103.05799 74.693408 
L 104.963985 76.737803 
L 105.599317 76.737803 
L 106.86998 78.100732 
L 107.505312 78.100732 
L 108.775976 79.463662 
L 109.411308 79.463662 
L 111.317303 81.508056 
L 111.952635 81.508056 
L 113.223298 82.870986 
L 113.85863 82.870986 
L 115.129294 84.233915 
L 115.764626 84.233915 
L 117.035289 85.596845 
L 117.670621 85.596845 
L 119.576616 87.641239 
L 120.211948 87.641239 
L 121.482612 89.004169 
L 122.117943 89.004169 
L 123.388607 90.367099 
L 124.023939 90.367099 
L 125.929934 92.411493 
L 126.565266 92.411493 
L 127.83593 93.774423 
L 128.471261 93.774423 
L 129.741925 95.137352 
L 130.377257 95.137352 
L 131.64792 96.500282 
L 132.283252 96.500282 
L 134.189247 98.544676 
L 134.824579 98.544676 
L 136.095243 99.907606 
L 136.730575 99.907606 
L 138.001238 101.270535 
L 138.63657 101.270535 
L 139.907234 102.633465 
L 140.542565 102.633465 
L 142.448561 104.677859 
L 143.083893 104.677859 
L 144.354556 106.040789 
L 144.989888 106.040789 
L 146.260552 107.403718 
L 146.895883 107.403718 
L 148.801879 109.448113 
L 149.43721 109.448113 
L 150.707874 110.811042 
L 151.343206 110.811042 
L 152.613869 112.173972 
L 153.249201 112.173972 
L 154.519865 113.536901 
L 155.155197 113.536901 
L 157.061192 115.581296 
L 157.696524 115.581296 
L 158.967187 116.944225 
L 159.602519 116.944225 
L 160.873183 118.307155 
L 161.508514 118.307155 
L 162.779178 119.670085 
L 163.41451 119.670085 
L 165.320505 121.714479 
L 165.955837 121.714479 
L 167.226501 123.077408 
L 167.861832 123.077408 
L 169.132496 124.440338 
L 169.767828 124.440338 
L 171.673823 126.484732 
L 172.309155 126.484732 
L 173.579819 127.847662 
L 174.21515 127.847662 
L 175.485814 129.210592 
L 176.121146 129.210592 
L 177.391809 130.573521 
L 178.027141 130.573521 
L 179.933136 132.617915 
L 180.568468 132.617915 
L 181.839132 133.980845 
L 182.474464 133.980845 
L 183.745127 135.343775 
L 184.380459 135.343775 
L 186.286454 137.388169 
L 186.921786 137.388169 
L 188.19245 138.751099 
L 188.827782 138.751099 
L 190.098445 140.114028 
L 190.733777 140.114028 
L 192.00444 141.476958 
L 192.639772 141.476958 
L 194.545768 143.521352 
L 195.181099 143.521352 
L 196.451763 144.884282 
L 197.087095 144.884282 
L 198.357758 146.247211 
L 198.99309 146.247211 
L 200.263754 147.610141 
L 200.899086 147.610141 
L 202.805081 149.654535 
L 203.440413 149.654535 
L 204.711076 151.017465 
L 205.346408 151.017465 
L 206.617072 152.380394 
L 207.252403 152.380394 
L 209.158399 154.424789 
L 209.793731 154.424789 
L 211.064394 155.787718 
L 211.699726 155.787718 
L 212.97039 157.150648 
L 213.605721 157.150648 
L 214.876385 158.513577 
L 215.511717 158.513577 
L 217.417712 160.557972 
L 218.053044 160.557972 
L 219.323708 161.920901 
L 219.959039 161.920901 
L 221.229703 163.283831 
L 221.865035 163.283831 
L 223.135698 164.646761 
L 223.77103 164.646761 
L 225.677025 166.691155 
L 226.312357 166.691155 
L 227.583021 168.054085 
L 228.218353 168.054085 
L 229.489016 169.417014 
L 230.124348 169.417014 
L 232.030343 171.461408 
L 232.665675 171.461408 
L 233.936339 172.824338 
L 234.571671 172.824338 
L 235.842334 174.187268 
L 236.477666 174.187268 
L 237.748329 175.550197 
L 238.383661 175.550197 
L 240.289657 177.594592 
L 240.924988 177.594592 
L 242.195652 178.957521 
L 242.830984 178.957521 
L 244.101647 180.320451 
L 244.736979 180.320451 
L 246.642975 182.364845 
L 247.278306 182.364845 
L 248.54897 183.727775 
L 249.184302 183.727775 
L 250.454965 185.090704 
L 251.090297 185.090704 
L 252.360961 186.453634 
L 252.996292 186.453634 
L 254.902288 188.498028 
L 255.53762 188.498028 
L 256.808283 189.860958 
L 257.443615 189.860958 
L 258.714279 191.223887 
L 259.34961 191.223887 
L 260.620274 192.586817 
L 261.255606 192.586817 
L 263.161601 194.631211 
L 263.796933 194.631211 
L 265.067597 195.994141 
L 265.702928 195.994141 
L 266.973592 197.35707 
L 267.608924 197.35707 
L 269.514919 199.401465 
L 270.150251 199.401465 
L 271.420914 200.764394 
L 272.056246 200.764394 
L 273.32691 202.127324 
L 273.962242 202.127324 
L 275.232905 203.490254 
L 275.868237 203.490254 
L 277.774232 205.534648 
L 278.409564 205.534648 
L 279.680228 206.897577 
L 280.31556 206.897577 
L 281.586223 208.260507 
L 282.221555 208.260507 
L 283.492218 209.623437 
L 284.12755 209.623437 
L 286.033546 211.667831 
L 286.668877 211.667831 
L 287.939541 213.030761 
L 288.574873 213.030761 
L 289.845536 214.39369 
L 290.480868 214.39369 
L 292.386864 216.438085 
L 293.022195 216.438085 
L 294.292859 217.801014 
L 294.928191 217.801014 
L 296.198854 219.163944 
L 296.834186 219.163944 
L 298.10485 220.526873 
L 298.740181 220.526873 
L 300.646177 222.571268 
L 301.281509 222.571268 
L 302.552172 223.934197 
L 303.187504 223.934197 
L 304.458168 225.297127 
L 305.093499 225.297127 
L 306.999495 227.341521 
L 307.634827 227.341521 
L 308.90549 228.704451 
L 309.540822 228.704451 
L 310.811486 230.06738 
L 311.446817 230.06738 
L 312.717481 231.43031 
L 313.352813 231.43031 
L 315.258808 233.474704 
L 315.89414 233.474704 
L 317.164803 234.837634 
L 317.800135 234.837634 
L 319.070799 236.200563 
L 319.706131 236.200563 
L 320.976794 237.563493 
L 321.612126 237.563493 
L 323.518121 239.607887 
L 324.153453 239.607887 
L 325.424117 240.970817 
L 326.059448 240.970817 
L 327.330112 242.333746 
L 327.965444 242.333746 
L 329.871439 244.378141 
L 330.506771 244.378141 
L 331.777435 245.74107 
L 332.412766 245.74107 
L 333.68343 247.104 
L 334.318762 247.104 
L 335.589425 248.46693 
L 336.224757 248.46693 
L 338.130753 250.511324 
L 338.766084 250.511324 
L 340.036748 251.874254 
L 340.67208 251.874254 
L 341.942743 253.237183 
L 342.578075 253.237183 
L 343.848739 254.600113 
L 344.48407 254.600113 
L 346.390066 256.644507 
L 347.025398 256.644507 
L 348.296061 258.007437 
L 348.931393 258.007437 
L 350.202057 259.370366 
L 350.837388 259.370366 
L 352.743384 261.414761 
L 353.378716 261.414761 
L 354.649379 262.77769 
L 355.284711 262.77769 
L 356.555374 264.14062 
L 357.190706 264.14062 
L 358.46137 265.503549 
L 359.096702 265.503549 
L 361.002697 267.547944 
L 361.638029 267.547944 
L 362.908692 268.910873 
L 363.544024 268.910873 
L 364.814688 270.273803 
L 365.45002 270.273803 
L 367.356015 272.318197 
L 367.991347 272.318197 
L 369.26201 273.681127 
L 369.897342 273.681127 
L 371.168006 275.044056 
L 371.803337 275.044056 
L 373.074001 276.406986 
L 373.709333 276.406986 
L 375.615328 278.45138 
L 376.25066 278.45138 
L 377.521324 279.81431 
L 378.156655 279.81431 
L 379.427319 281.177239 
L 380.062651 281.177239 
L 381.333314 282.540169 
L 381.968646 282.540169 
L 383.874642 284.584563 
L 384.509973 284.584563 
L 385.780637 285.947493 
L 386.415969 285.947493 
L 387.686632 287.310423 
L 388.321964 287.310423 
L 390.227959 289.354817 
L 390.863291 289.354817 
L 392.133955 290.717746 
L 392.769287 290.717746 
L 394.03995 292.080676 
L 394.675282 292.080676 
L 395.945946 293.443606 
L 396.581277 293.443606 
L 398.487273 295.488 
L 398.487273 295.488 
" clip-path="url(#p6a4ac3d41c)" style="fill: none; stroke: #1f77b4; stroke-width: 1.5; stroke-linecap: square"/>
   </g>
   <g id="line2d_16">
    <path d="M 73.832727 63.789972 
L 75.103391 65.152901 
L 75.738723 65.152901 
L 77.009386 66.515831 
L 77.644718 66.515831 
L 78.915382 67.878761 
L 79.550713 67.878761 
L 80.821377 69.24169 
L 81.456709 69.24169 
L 82.727372 70.60462 
L 83.362704 70.60462 
L 84.633368 71.967549 
L 85.2687 71.967549 
L 85.904031 72.649014 
L 86.539363 72.649014 
L 87.810027 74.011944 
L 88.445358 74.011944 
L 89.716022 75.374873 
L 90.351354 75.374873 
L 91.622017 76.737803 
L 92.257349 76.737803 
L 93.528013 78.100732 
L 94.163345 78.100732 
L 95.434008 79.463662 
L 96.06934 79.463662 
L 97.340004 80.826592 
L 97.975335 80.826592 
L 99.245999 82.189521 
L 99.881331 82.189521 
L 100.516663 82.870986 
L 101.151994 82.870986 
L 102.422658 84.233915 
L 103.05799 84.233915 
L 104.328653 85.596845 
L 104.963985 85.596845 
L 106.234649 86.959775 
L 106.86998 86.959775 
L 108.140644 88.322704 
L 108.775976 88.322704 
L 110.046639 89.685634 
L 110.681971 89.685634 
L 111.952635 91.048563 
L 112.587967 91.048563 
L 113.85863 92.411493 
L 114.493962 92.411493 
L 115.129294 93.092958 
L 115.764626 93.092958 
L 117.035289 94.455887 
L 117.670621 94.455887 
L 118.941284 95.818817 
L 119.576616 95.818817 
L 120.84728 97.181746 
L 121.482612 97.181746 
L 122.753275 98.544676 
L 123.388607 98.544676 
L 124.659271 99.907606 
L 125.294602 99.907606 
L 126.565266 101.270535 
L 127.200598 101.270535 
L 128.471261 102.633465 
L 129.106593 102.633465 
L 130.377257 103.996394 
L 131.012589 103.996394 
L 131.64792 104.677859 
L 132.283252 104.677859 
L 133.553916 106.040789 
L 134.189247 106.040789 
L 135.459911 107.403718 
L 136.095243 107.403718 
L 137.365906 108.766648 
L 138.001238 108.766648 
L 139.271902 110.129577 
L 139.907234 110.129577 
L 141.177897 111.492507 
L 141.813229 111.492507 
L 143.083893 112.855437 
L 143.719224 112.855437 
L 144.989888 114.218366 
L 145.62522 114.218366 
L 146.260552 114.899831 
L 146.895883 114.899831 
L 148.166547 116.262761 
L 148.801879 116.262761 
L 150.072542 117.62569 
L 150.707874 117.62569 
L 151.978538 118.98862 
L 152.613869 118.98862 
L 153.884533 120.351549 
L 154.519865 120.351549 
L 155.790528 121.714479 
L 156.42586 121.714479 
L 157.696524 123.077408 
L 158.331856 123.077408 
L 159.602519 124.440338 
L 160.237851 124.440338 
L 160.873183 125.121803 
L 161.508514 125.121803 
L 162.779178 126.484732 
L 163.41451 126.484732 
L 164.685173 127.847662 
L 165.320505 127.847662 
L 166.591169 129.210592 
L 167.226501 129.210592 
L 168.497164 130.573521 
L 169.132496 130.573521 
L 170.40316 131.936451 
L 171.038491 131.936451 
L 172.309155 133.29938 
L 172.944487 133.29938 
L 174.21515 134.66231 
L 174.850482 134.66231 
L 175.485814 135.343775 
L 176.121146 135.343775 
L 177.391809 136.706704 
L 178.027141 136.706704 
L 179.297805 138.069634 
L 179.933136 138.069634 
L 181.2038 139.432563 
L 181.839132 139.432563 
L 183.109795 140.795493 
L 183.745127 140.795493 
L 185.015791 142.158423 
L 185.651123 142.158423 
L 186.921786 143.521352 
L 187.557118 143.521352 
L 188.827782 144.884282 
L 189.463113 144.884282 
L 190.098445 145.565746 
L 190.733777 145.565746 
L 192.00444 146.928676 
L 192.639772 146.928676 
L 193.910436 148.291606 
L 194.545768 148.291606 
L 195.816431 149.654535 
L 196.451763 149.654535 
L 197.722427 151.017465 
L 198.357758 151.017465 
L 199.628422 152.380394 
L 200.263754 152.380394 
L 201.534417 153.743324 
L 202.169749 153.743324 
L 203.440413 155.106254 
L 204.075745 155.106254 
L 204.711076 155.787718 
L 205.346408 155.787718 
L 206.617072 157.150648 
L 207.252403 157.150648 
L 208.523067 158.513577 
L 209.158399 158.513577 
L 210.429062 159.876507 
L 211.064394 159.876507 
L 212.335058 161.239437 
L 212.97039 161.239437 
L 214.241053 162.602366 
L 214.876385 162.602366 
L 216.147049 163.965296 
L 216.78238 163.965296 
L 218.053044 165.328225 
L 218.688376 165.328225 
L 219.323708 166.00969 
L 219.959039 166.00969 
L 221.229703 167.37262 
L 221.865035 167.37262 
L 223.135698 168.735549 
L 223.77103 168.735549 
L 225.041694 170.098479 
L 225.677025 170.098479 
L 226.947689 171.461408 
L 227.583021 171.461408 
L 228.853684 172.824338 
L 229.489016 172.824338 
L 230.75968 174.187268 
L 231.395012 174.187268 
L 232.665675 175.550197 
L 233.301007 175.550197 
L 233.936339 176.231662 
L 234.571671 176.231662 
L 235.842334 177.594592 
L 236.477666 177.594592 
L 237.748329 178.957521 
L 238.383661 178.957521 
L 239.654325 180.320451 
L 240.289657 180.320451 
L 241.56032 181.68338 
L 242.195652 181.68338 
L 243.466316 183.04631 
L 244.101647 183.04631 
L 245.372311 184.409239 
L 246.007643 184.409239 
L 247.278306 185.772169 
L 247.913638 185.772169 
L 248.54897 186.453634 
L 249.184302 186.453634 
L 250.454965 187.816563 
L 251.090297 187.816563 
L 252.360961 189.179493 
L 252.996292 189.179493 
L 254.266956 190.542423 
L 254.902288 190.542423 
L 256.172951 191.905352 
L 256.808283 191.905352 
L 258.078947 193.268282 
L 258.714279 193.268282 
L 259.984942 194.631211 
L 260.620274 194.631211 
L 261.890938 195.994141 
L 262.526269 195.994141 
L 263.161601 196.675606 
L 263.796933 196.675606 
L 265.067597 198.038535 
L 265.702928 198.038535 
L 266.973592 199.401465 
L 267.608924 199.401465 
L 268.879587 200.764394 
L 269.514919 200.764394 
L 270.785583 202.127324 
L 271.420914 202.127324 
L 272.691578 203.490254 
L 273.32691 203.490254 
L 274.597573 204.853183 
L 275.232905 204.853183 
L 276.503569 206.216113 
L 277.138901 206.216113 
L 277.774232 206.897577 
L 278.409564 206.897577 
L 279.680228 208.260507 
L 280.31556 208.260507 
L 281.586223 209.623437 
L 282.221555 209.623437 
L 283.492218 210.986366 
L 284.12755 210.986366 
L 285.398214 212.349296 
L 286.033546 212.349296 
L 287.304209 213.712225 
L 287.939541 213.712225 
L 289.210205 215.075155 
L 289.845536 215.075155 
L 291.1162 216.438085 
L 291.751532 216.438085 
L 292.386864 217.119549 
L 293.022195 217.119549 
L 294.292859 218.482479 
L 294.928191 218.482479 
L 296.198854 219.845408 
L 296.834186 219.845408 
L 298.10485 221.208338 
L 298.740181 221.208338 
L 300.010845 222.571268 
L 300.646177 222.571268 
L 301.91684 223.934197 
L 302.552172 223.934197 
L 303.822836 225.297127 
L 304.458168 225.297127 
L 305.728831 226.660056 
L 306.364163 226.660056 
L 306.999495 227.341521 
L 307.634827 227.341521 
L 308.90549 228.704451 
L 309.540822 228.704451 
L 310.811486 230.06738 
L 311.446817 230.06738 
L 312.717481 231.43031 
L 313.352813 231.43031 
L 314.623476 232.793239 
L 315.258808 232.793239 
L 316.529472 234.156169 
L 317.164803 234.156169 
L 318.435467 235.519099 
L 319.070799 235.519099 
L 320.341462 236.882028 
L 320.976794 236.882028 
L 321.612126 237.563493 
L 322.247458 237.563493 
L 323.518121 238.926423 
L 324.153453 238.926423 
L 325.424117 240.289352 
L 326.059448 240.289352 
L 327.330112 241.652282 
L 327.965444 241.652282 
L 329.236107 243.015211 
L 329.871439 243.015211 
L 331.142103 244.378141 
L 331.777435 244.378141 
L 333.048098 245.74107 
L 333.68343 245.74107 
L 334.954094 247.104 
L 335.589425 247.104 
L 336.860089 248.46693 
L 337.495421 248.46693 
L 338.130753 249.148394 
L 338.766084 249.148394 
L 340.036748 250.511324 
L 340.67208 250.511324 
L 341.942743 251.874254 
L 342.578075 251.874254 
L 343.848739 253.237183 
L 344.48407 253.237183 
L 345.754734 254.600113 
L 346.390066 254.600113 
L 347.660729 255.963042 
L 348.296061 255.963042 
L 349.566725 257.325972 
L 350.202057 257.325972 
L 351.47272 258.688901 
L 352.108052 258.688901 
L 352.743384 259.370366 
L 353.378716 259.370366 
L 354.649379 260.733296 
L 355.284711 260.733296 
L 356.555374 262.096225 
L 357.190706 262.096225 
L 358.46137 263.459155 
L 359.096702 263.459155 
L 360.367365 264.822085 
L 361.002697 264.822085 
L 362.273361 266.185014 
L 362.908692 266.185014 
L 364.179356 267.547944 
L 364.814688 267.547944 
L 366.085351 268.910873 
L 366.720683 268.910873 
L 367.356015 269.592338 
L 367.991347 269.592338 
L 369.26201 270.955268 
L 369.897342 270.955268 
L 371.168006 272.318197 
L 371.803337 272.318197 
L 373.074001 273.681127 
L 373.709333 273.681127 
L 374.979996 275.044056 
L 375.615328 275.044056 
L 376.885992 276.406986 
L 377.521324 276.406986 
L 378.791987 277.769915 
L 379.427319 277.769915 
L 380.697983 279.132845 
L 381.333314 279.132845 
L 381.968646 279.81431 
L 382.603978 279.81431 
L 383.874642 281.177239 
L 384.509973 281.177239 
L 385.780637 282.540169 
L 386.415969 282.540169 
L 387.686632 283.903099 
L 388.321964 283.903099 
L 389.592628 285.266028 
L 390.227959 285.266028 
L 391.498623 286.628958 
L 392.133955 286.628958 
L 393.404618 287.991887 
L 394.03995 287.991887 
L 395.310614 289.354817 
L 395.945946 289.354817 
L 396.581277 290.036282 
L 397.216609 290.036282 
L 398.487273 291.399211 
L 398.487273 291.399211 
" clip-path="url(#p6a4ac3d41c)" style="fill: none; stroke: #ff7f0e; stroke-width: 1.5; stroke-linecap: square"/>
   </g>
   <g id="patch_3">
    <path d="M 57.6 307.584 
L 57.6 41.472 
" style="fill: none; stroke: #000000; stroke-width: 0.8; stroke-linejoin: miter; stroke-linecap: square"/>
   </g>
   <g id="patch_4">
    <path d="M 414.72 307.584 
L 414.72 41.472 
" style="fill: none; stroke: #000000; stroke-width: 0.8; stroke-linejoin: miter; stroke-linecap: square"/>
   </g>
   <g id="patch_5">
    <path d="M 57.6 307.584 
L 414.72 307.584 
" style="fill: none; stroke: #000000; stroke-width: 0.8; stroke-linejoin: miter; stroke-linecap: square"/>
   </g>
   <g id="patch_6">
    <path d="M 57.6 41.472 
L 414.72 41.472 
" style="fill: none; stroke: #000000; stroke-width: 0.8; stroke-linejoin: miter; stroke-linecap: square"/>
   </g>
   <g id="legend_1">
    <g id="patch_7">
     <path d="M 289.248125 78.82825 
L 407.72 78.82825 
Q 409.72 78.82825 409.72 76.82825 
L 409.72 48.472 
Q 409.72 46.472 407.72 46.472 
L 289.248125 46.472 
Q 287.248125 46.472 287.248125 48.472 
L 287.248125 76.82825 
Q 287.248125 78.82825 289.248125 78.82825 
z
" style="fill: #ffffff; opacity: 0.8; stroke: #cccccc; stroke-linejoin: miter"/>
    </g>
    <g id="line2d_17">
     <path d="M 291.248125 54.570437 
L 301.248125 54.570437 
L 311.248125 54.570437 
" style="fill: none; stroke: #1f77b4; stroke-width: 1.5; stroke-linecap: square"/>
    </g>
    <g id="text_17">
     <!-- Ingber -->
     <g transform="translate(319.248125 58.070437) scale(0.1 -0.1)">
      <defs>
       <path id="DejaVuSans-49" d="M 628 4666 
L 1259 4666 
L 1259 0 
L 628 0 
L 628 4666 
z
" transform="scale(0.015625)"/>
       <path id="DejaVuSans-67" d="M 2906 1791 
Q 2906 2416 2648 2759 
Q 2391 3103 1925 3103 
Q 1463 3103 1205 2759 
Q 947 2416 947 1791 
Q 947 1169 1205 825 
Q 1463 481 1925 481 
Q 2391 481 2648 825 
Q 2906 1169 2906 1791 
z
M 3481 434 
Q 3481 -459 3084 -895 
Q 2688 -1331 1869 -1331 
Q 1566 -1331 1297 -1286 
Q 1028 -1241 775 -1147 
L 775 -588 
Q 1028 -725 1275 -790 
Q 1522 -856 1778 -856 
Q 2344 -856 2625 -561 
Q 2906 -266 2906 331 
L 2906 616 
Q 2728 306 2450 153 
Q 2172 0 1784 0 
Q 1141 0 747 490 
Q 353 981 353 1791 
Q 353 2603 747 3093 
Q 1141 3584 1784 3584 
Q 2172 3584 2450 3431 
Q 2728 3278 2906 2969 
L 2906 3500 
L 3481 3500 
L 3481 434 
z
" transform="scale(0.015625)"/>
       <path id="DejaVuSans-62" d="M 3116 1747 
Q 3116 2381 2855 2742 
Q 2594 3103 2138 3103 
Q 1681 3103 1420 2742 
Q 1159 2381 1159 1747 
Q 1159 1113 1420 752 
Q 1681 391 2138 391 
Q 2594 391 2855 752 
Q 3116 1113 3116 1747 
z
M 1159 2969 
Q 1341 3281 1617 3432 
Q 1894 3584 2278 3584 
Q 2916 3584 3314 3078 
Q 3713 2572 3713 1747 
Q 3713 922 3314 415 
Q 2916 -91 2278 -91 
Q 1894 -91 1617 61 
Q 1341 213 1159 525 
L 1159 0 
L 581 0 
L 581 4863 
L 1159 4863 
L 1159 2969 
z
" transform="scale(0.015625)"/>
       <path id="DejaVuSans-65" d="M 3597 1894 
L 3597 1613 
L 953 1613 
Q 991 1019 1311 708 
Q 1631 397 2203 397 
Q 2534 397 2845 478 
Q 3156 559 3463 722 
L 3463 178 
Q 3153 47 2828 -22 
Q 2503 -91 2169 -91 
Q 1331 -91 842 396 
Q 353 884 353 1716 
Q 353 2575 817 3079 
Q 1281 3584 2069 3584 
Q 2775 3584 3186 3129 
Q 3597 2675 3597 1894 
z
M 3022 2063 
Q 3016 2534 2758 2815 
Q 2500 3097 2075 3097 
Q 1594 3097 1305 2825 
Q 1016 2553 972 2059 
L 3022 2063 
z
" transform="scale(0.015625)"/>
       <path id="DejaVuSans-72" d="M 2631 2963 
Q 2534 3019 2420 3045 
Q 2306 3072 2169 3072 
Q 1681 3072 1420 2755 
Q 1159 2438 1159 1844 
L 1159 0 
L 581 0 
L 581 3500 
L 1159 3500 
L 1159 2956 
Q 1341 3275 1631 3429 
Q 1922 3584 2338 3584 
Q 2397 3584 2469 3576 
Q 2541 3569 2628 3553 
L 2631 2963 
z
" transform="scale(0.015625)"/>
      </defs>
      <use xlink:href="#DejaVuSans-49"/>
      <use xlink:href="#DejaVuSans-6e" x="29.492188"/>
      <use xlink:href="#DejaVuSans-67" x="92.871094"/>
      <use xlink:href="#DejaVuSans-62" x="156.347656"/>
      <use xlink:href="#DejaVuSans-65" x="219.824219"/>
      <use xlink:href="#DejaVuSans-72" x="281.347656"/>
     </g>
    </g>
    <g id="line2d_18">
     <path d="M 291.248125 69.248562 
L 301.248125 69.248562 
L 311.248125 69.248562 
" style="fill: none; stroke: #ff7f0e; stroke-width: 1.5; stroke-linecap: square"/>
    </g>
    <g id="text_18">
     <!-- Payson &amp; Savage -->
     <g transform="translate(319.248125 72.748562) scale(0.1 -0.1)">
      <defs>
       <path id="DejaVuSans-50" d="M 1259 4147 
L 1259 2394 
L 2053 2394 
Q 2494 2394 2734 2622 
Q 2975 2850 2975 3272 
Q 2975 3691 2734 3919 
Q 2494 4147 2053 4147 
L 1259 4147 
z
M 628 4666 
L 2053 4666 
Q 2838 4666 3239 4311 
Q 3641 3956 3641 3272 
Q 3641 2581 3239 2228 
Q 2838 1875 2053 1875 
L 1259 1875 
L 1259 0 
L 628 0 
L 628 4666 
z
" transform="scale(0.015625)"/>
       <path id="DejaVuSans-61" d="M 2194 1759 
Q 1497 1759 1228 1600 
Q 959 1441 959 1056 
Q 959 750 1161 570 
Q 1363 391 1709 391 
Q 2188 391 2477 730 
Q 2766 1069 2766 1631 
L 2766 1759 
L 2194 1759 
z
M 3341 1997 
L 3341 0 
L 2766 0 
L 2766 531 
Q 2569 213 2275 61 
Q 1981 -91 1556 -91 
Q 1019 -91 701 211 
Q 384 513 384 1019 
Q 384 1609 779 1909 
Q 1175 2209 1959 2209 
L 2766 2209 
L 2766 2266 
Q 2766 2663 2505 2880 
Q 2244 3097 1772 3097 
Q 1472 3097 1187 3025 
Q 903 2953 641 2809 
L 641 3341 
Q 956 3463 1253 3523 
Q 1550 3584 1831 3584 
Q 2591 3584 2966 3190 
Q 3341 2797 3341 1997 
z
" transform="scale(0.015625)"/>
       <path id="DejaVuSans-79" d="M 2059 -325 
Q 1816 -950 1584 -1140 
Q 1353 -1331 966 -1331 
L 506 -1331 
L 506 -850 
L 844 -850 
Q 1081 -850 1212 -737 
Q 1344 -625 1503 -206 
L 1606 56 
L 191 3500 
L 800 3500 
L 1894 763 
L 2988 3500 
L 3597 3500 
L 2059 -325 
z
" transform="scale(0.015625)"/>
       <path id="DejaVuSans-6f" d="M 1959 3097 
Q 1497 3097 1228 2736 
Q 959 2375 959 1747 
Q 959 1119 1226 758 
Q 1494 397 1959 397 
Q 2419 397 2687 759 
Q 2956 1122 2956 1747 
Q 2956 2369 2687 2733 
Q 2419 3097 1959 3097 
z
M 1959 3584 
Q 2709 3584 3137 3096 
Q 3566 2609 3566 1747 
Q 3566 888 3137 398 
Q 2709 -91 1959 -91 
Q 1206 -91 779 398 
Q 353 888 353 1747 
Q 353 2609 779 3096 
Q 1206 3584 1959 3584 
z
" transform="scale(0.015625)"/>
       <path id="DejaVuSans-26" d="M 1556 2509 
Q 1272 2256 1139 2004 
Q 1006 1753 1006 1478 
Q 1006 1022 1337 719 
Q 1669 416 2169 416 
Q 2466 416 2725 514 
Q 2984 613 3213 813 
L 1556 2509 
z
M 1997 2859 
L 3584 1234 
Q 3769 1513 3872 1830 
Q 3975 2147 3994 2503 
L 4575 2503 
Q 4538 2091 4375 1687 
Q 4213 1284 3922 891 
L 4794 0 
L 4006 0 
L 3559 459 
Q 3234 181 2878 45 
Q 2522 -91 2113 -91 
Q 1359 -91 881 339 
Q 403 769 403 1441 
Q 403 1841 612 2192 
Q 822 2544 1241 2853 
Q 1091 3050 1012 3245 
Q 934 3441 934 3628 
Q 934 4134 1281 4442 
Q 1628 4750 2203 4750 
Q 2463 4750 2720 4694 
Q 2978 4638 3244 4525 
L 3244 3956 
Q 2972 4103 2725 4179 
Q 2478 4256 2266 4256 
Q 1938 4256 1733 4082 
Q 1528 3909 1528 3634 
Q 1528 3475 1620 3314 
Q 1713 3153 1997 2859 
z
" transform="scale(0.015625)"/>
       <path id="DejaVuSans-53" d="M 3425 4513 
L 3425 3897 
Q 3066 4069 2747 4153 
Q 2428 4238 2131 4238 
Q 1616 4238 1336 4038 
Q 1056 3838 1056 3469 
Q 1056 3159 1242 3001 
Q 1428 2844 1947 2747 
L 2328 2669 
Q 3034 2534 3370 2195 
Q 3706 1856 3706 1288 
Q 3706 609 3251 259 
Q 2797 -91 1919 -91 
Q 1588 -91 1214 -16 
Q 841 59 441 206 
L 441 856 
Q 825 641 1194 531 
Q 1563 422 1919 422 
Q 2459 422 2753 634 
Q 3047 847 3047 1241 
Q 3047 1584 2836 1778 
Q 2625 1972 2144 2069 
L 1759 2144 
Q 1053 2284 737 2584 
Q 422 2884 422 3419 
Q 422 4038 858 4394 
Q 1294 4750 2059 4750 
Q 2388 4750 2728 4690 
Q 3069 4631 3425 4513 
z
" transform="scale(0.015625)"/>
       <path id="DejaVuSans-76" d="M 191 3500 
L 800 3500 
L 1894 563 
L 2988 3500 
L 3597 3500 
L 2284 0 
L 1503 0 
L 191 3500 
z
" transform="scale(0.015625)"/>
      </defs>
      <use xlink:href="#DejaVuSans-50"/>
      <use xlink:href="#DejaVuSans-61" x="55.802734"/>
      <use xlink:href="#DejaVuSans-79" x="117.082031"/>
      <use xlink:href="#DejaVuSans-73" x="176.261719"/>
      <use xlink:href="#DejaVuSans-6f" x="228.361328"/>
      <use xlink:href="#DejaVuSans-6e" x="289.542969"/>
      <use xlink:href="#DejaVuSans-20" x="352.921875"/>
      <use xlink:href="#DejaVuSans-26" x="384.708984"/>
      <use xlink:href="#DejaVuSans-20" x="462.6875"/>
      <use xlink:href="#DejaVuSans-53" x="494.474609"/>
      <use xlink:href="#DejaVuSans-61" x="557.951172"/>
      <use xlink:href="#DejaVuSans-76" x="619.230469"/>
      <use xlink:href="#DejaVuSans-61" x="678.410156"/>
      <use xlink:href="#DejaVuSans-67" x="739.689453"/>
      <use xlink:href="#DejaVuSans-65" x="803.166016"/>
     </g>
    </g>
   </g>
  </g>
 </g>
 <defs>
  <clipPath id="p6a4ac3d41c">
   <rect x="57.6" y="41.472" width="357.12" height="266.112"/>
  </clipPath>
 </defs>
</svg>
